# xmcd
#
# Track frame offsets:
#	183
#	11210
#	28745
#	41388
#	55815
#	68863
#	81310
#	91448
#	104530
#	113868
#	130458
#	140700
#	152745
#	162943
#	173075
#	196010
#	204958
#	216370
#	230775
#	243055
#
# Disc length: 3369 seconds
#
# Revision: 0
# Processed by: cddbd v1.4PL0 Copyright (c) Steve Scherf et al.
# Submitted via: dBpowerAMP V4.0
#
DISCID=1b0d2714
DTITLE=Various Artist - American Truck Driver Songs
DYEAR=1900
DGENRE=Country
TTITLE0=Willie Nelson - On The Road Again
TTITLE1=C.W. McColl - Convoy
TTITLE2=J. Fagan - Eighteen Wheels
TTITLE3=T. Faile - Phantom 309
TTITLE4=H. Mills - Girl On The Billboard
TTITLE5=T. Lankford - Freightliner Lever
TTITLE6=L. Shepherd - Rhythm Of The Road
TTITLE7=R. Rogers - Me And Old C.B.
TTITLE8=D. Deen - Truck Drivin' Son Of Gun
TTITLE9=D. Loggins - Roll On
TTITLE10=M. Haggard - Monin' On
TTITLE11=S. Buono - Ode To 10-33
TTITLE12=Green - Six Days On The Road
TTITLE13=J. Chestnut - Loocking At The World Through A Windshield
TTITLE14=Royal - Teddy Bear
TTITLE15=Fell - Truck Drivin' Man
TTITLE16=H. Jacobs - That's Truckdriving
TTITLE17=L. Cordie - Highway 40 Blues
TTITLE18=R. Sovine - Truckdriver's Prayer
TTITLE19=D. Thompson - Trucker's Way Of Life
EXTD=American Truck Driver Songs
EXTT0=
EXTT1=
EXTT2=
EXTT3=
EXTT4=
EXTT5=
EXTT6=
EXTT7=
EXTT8=
EXTT9=
EXTT10=
EXTT11=
EXTT12=
EXTT13=
EXTT14=
EXTT15=
EXTT16=
EXTT17=
EXTT18=
EXTT19=
PLAYORDER=
